<svg width="32" height="32" viewBox="0 0 32 32" fill="none" xmlns="http://www.w3.org/2000/svg">
  <rect width="32" height="32" rx="8" fill="url(#paint0_linear)" />
  <path d="M16 8C12.6863 8 10 10.6863 10 14C10 15.5913 10.6322 17.0374 11.6667 18.0711C11.2339 18.446 10.5014 19.1177 9.73333 20.088C9.38295 20.5409 9.46827 21.1903 9.92111 21.5407C10.374 21.891 11.0234 21.8057 11.3738 21.3529C11.9352 20.6303 12.4201 20.1013 12.7051 19.8296C13.6948 20.2647 14.8166 20.5 16 20.5C19.3137 20.5 22 17.8137 22 14.5C22 11.1863 19.3137 8.5 16 8.5C12.6863 8.5 10 11.1863 10 14.5" stroke="white" stroke-width="2" stroke-linecap="round" stroke-linejoin="round" />
  <path d="M16 24C16.5523 24 17 23.5523 17 23C17 22.4477 16.5523 22 16 22C15.4477 22 15 22.4477 15 23C15 23.5523 15.4477 24 16 24Z" fill="white" />
  <path d="M16 13C16.5523 13 17 12.5523 17 12C17 11.4477 16.5523 11 16 11C15.4477 11 15 11.4477 15 12C15 12.5523 15.4477 13 16 13Z" fill="white" />
  <path d="M16 19V14" stroke="white" stroke-width="2" stroke-linecap="round" stroke-linejoin="round" />
  <defs>
    <linearGradient id="paint0_linear" x1="0" y1="0" x2="32" y2="32" gradientUnits="userSpaceOnUse">
      <stop stop-color="#6366F1" />
      <stop offset="1" stop-color="#4338CA" />
    </linearGradient>
  </defs>
</svg>