<svg width="32" height="32" viewBox="0 0 32 32" fill="none" xmlns="http://www.w3.org/2000/svg">
  <rect width="32" height="32" rx="8" fill="url(#paint0_linear)" />
  <path d="M11 10C9.89543 10 9 10.8954 9 12V14C9 15.1046 9.89543 16 11 16H13C14.1046 16 15 15.1046 15 14V12C15 10.8954 14.1046 10 13 10H11Z" fill="white" />
  <path d="M11 18C9.89543 18 9 18.8954 9 20V22C9 23.1046 9.89543 24 11 24H13C14.1046 24 15 23.1046 15 22V20C15 18.8954 14.1046 18 13 18H11Z" fill="white" />
  <path d="M19 10C17.8954 10 17 10.8954 17 12V14C17 15.1046 17.8954 16 19 16H21C22.1046 16 23 15.1046 23 14V12C23 10.8954 22.1046 10 21 10H19Z" fill="white" />
  <path d="M19 18C17.8954 18 17 18.8954 17 20V22C17 23.1046 17.8954 24 19 24H21C22.1046 24 23 23.1046 23 22V20C23 18.8954 22.1046 18 21 18H19Z" fill="white" />
  <defs>
    <linearGradient id="paint0_linear" x1="0" y1="0" x2="32" y2="32" gradientUnits="userSpaceOnUse">
      <stop stop-color="#F59E0B" />
      <stop offset="1" stop-color="#D97706" />
    </linearGradient>
  </defs>
</svg>